<svg width="22" height="14" viewBox="0 0 22 14" fill="none" xmlns="http://www.w3.org/2000/svg">
<path fill-rule="evenodd" clip-rule="evenodd" d="M15.0812 1.59554V2.19923C17.8391 2.3695 19.25 3.33953 19.25 5.08351V9.90785C19.25 11.8479 17.5123 12.8334 14.0928 12.8334H7.90725C4.48768 12.8334 2.75 11.8479 2.75 9.90785V5.08351C2.75 3.92258 3.37174 3.09186 4.6471 2.60685C4.84814 2.51952 5.10824 2.51342 5.31852 2.59111C5.52879 2.66879 5.65296 2.81686 5.63905 2.97332C5.62514 3.12978 5.47555 3.26765 5.2529 3.32921C4.40797 3.64911 4.00942 4.20636 4.00942 5.08351V5.23831H15.6391C15.9869 5.23831 16.2688 5.4208 16.2688 5.64592C16.2688 5.87104 15.9869 6.05354 15.6391 6.05354H4.00942V9.90785C4.00942 11.3887 5.1413 12.0027 7.90725 12.013H14.0928C16.8188 12.013 17.9826 11.3835 17.9826 9.90269V5.07835C17.9826 3.78842 17.0978 3.1641 15.0812 3.01447V3.4066C15.0347 3.61562 14.7519 3.7682 14.4259 3.76024C14.1 3.75228 13.8358 3.58633 13.8138 3.37565V1.55942C13.8199 1.45035 13.8934 1.34745 14.0178 1.27374C14.1422 1.20003 14.307 1.16169 14.4754 1.16729C14.8225 1.1811 15.0904 1.37047 15.0812 1.59554ZM7.98304 3.67088C7.86322 3.74747 7.70099 3.7898 7.53261 3.78842C7.18795 3.78279 6.91437 3.5988 6.91884 3.37565V1.59554C6.95508 1.38672 7.2279 1.22884 7.55254 1.22884C7.87717 1.22884 8.14999 1.38672 8.18623 1.59554V2.15795H11.7891C12.1369 2.15795 12.4188 2.34045 12.4188 2.56557C12.4188 2.79069 12.1369 2.97319 11.7891 2.97319H8.17029V3.38081C8.1703 3.48981 8.10287 3.59428 7.98304 3.67088ZM14.842 7.35895C14.4018 7.35895 14.0449 7.58996 14.0449 7.87492C14.0449 8.15989 14.4018 8.3909 14.842 8.3909C15.2823 8.3909 15.6391 8.15989 15.6391 7.87492C15.6391 7.73718 15.5541 7.60515 15.4029 7.50824C15.2516 7.41133 15.0468 7.35757 14.8341 7.35895H14.842ZM10.2188 7.87492C10.2188 7.58996 10.5757 7.35895 11.0159 7.35895C11.4562 7.35895 11.813 7.58996 11.813 7.87492C11.813 8.15989 11.4562 8.3909 11.0159 8.3909C10.5757 8.3909 10.2188 8.15989 10.2188 7.87492ZM7.19783 7.35895C6.7576 7.35895 6.40072 7.58996 6.40072 7.87492C6.40072 8.15989 6.7576 8.3909 7.19783 8.3909C7.63805 8.3909 7.99493 8.15989 7.99493 7.87492C7.99494 7.73718 7.90986 7.60515 7.75865 7.50824C7.60744 7.41133 7.40264 7.35757 7.18986 7.35895H7.19783ZM14.0449 9.96461C14.0449 9.67965 14.4018 9.44864 14.842 9.44864H14.8341C15.0468 9.44726 15.2516 9.50101 15.4029 9.59793C15.5541 9.69484 15.6391 9.82687 15.6391 9.96461C15.6391 10.2496 15.2823 10.4806 14.842 10.4806C14.4018 10.4806 14.0449 10.2496 14.0449 9.96461ZM11.0159 9.44864C10.5757 9.44864 10.2188 9.67965 10.2188 9.96461C10.2188 10.2496 10.5757 10.4806 11.0159 10.4806C11.4562 10.4806 11.813 10.2496 11.813 9.96461C11.813 9.67965 11.4562 9.44864 11.0159 9.44864ZM6.40072 9.96461C6.40072 9.67965 6.7576 9.44864 7.19783 9.44864H7.18986C7.40264 9.44726 7.60744 9.50101 7.75865 9.59793C7.90986 9.69484 7.99494 9.82687 7.99493 9.96461C7.99493 10.2496 7.63805 10.4806 7.19783 10.4806C6.7576 10.4806 6.40072 10.2496 6.40072 9.96461Z" fill="#616164"/>
</svg>
